<svg width="1699" height="1542" viewBox="0 0 1699 1542" fill="none" xmlns="http://www.w3.org/2000/svg">
<path d="M650.93 600.08H27.93C20.5514 600.072 13.4774 597.137 8.25996 591.92C3.04255 586.703 0.107917 579.629 0.0999756 572.25V154.51C0.107917 147.131 3.04255 140.057 8.25996 134.84C13.4774 129.623 20.5514 126.688 27.93 126.68H650.93C658.308 126.688 665.383 129.623 670.6 134.84C675.817 140.057 678.752 147.131 678.76 154.51V572.25C678.752 579.629 675.817 586.703 670.6 591.92C665.383 597.137 658.308 600.072 650.93 600.08ZM27.93 134.68C22.6723 134.685 17.6316 136.776 13.9139 140.494C10.1962 144.212 8.10527 149.252 8.09998 154.51V572.25C8.10527 577.508 10.1962 582.548 13.9139 586.266C17.6316 589.984 22.6723 592.075 27.93 592.08H650.93C656.188 592.075 661.228 589.984 664.946 586.266C668.664 582.548 670.755 577.508 670.76 572.25V154.51C670.755 149.252 668.664 144.212 664.946 140.494C661.228 136.776 656.188 134.685 650.93 134.68H27.93Z" fill="#E05F3C"/>
<path d="M51.27 188.15C59.7972 188.15 66.7099 181.237 66.7099 172.71C66.7099 164.183 59.7972 157.27 51.27 157.27C42.7427 157.27 35.83 164.183 35.83 172.71C35.83 181.237 42.7427 188.15 51.27 188.15Z" fill="#EC795A"/>
<path d="M115.17 188.15C123.697 188.15 130.61 181.237 130.61 172.71C130.61 164.183 123.697 157.27 115.17 157.27C106.643 157.27 99.73 164.183 99.73 172.71C99.73 181.237 106.643 188.15 115.17 188.15Z" fill="#EC795A"/>
<path d="M179.06 188.15C187.587 188.15 194.5 181.237 194.5 172.71C194.5 164.183 187.587 157.27 179.06 157.27C170.533 157.27 163.62 164.183 163.62 172.71C163.62 181.237 170.533 188.15 179.06 188.15Z" fill="#EC795A"/>
<path d="M1672.16 123.16H1073.08C1059.92 123.16 1049.25 133.829 1049.25 146.99V713.55C1049.25 726.711 1059.92 737.38 1073.08 737.38H1672.16C1685.32 737.38 1695.99 726.711 1695.99 713.55V146.99C1695.99 133.829 1685.32 123.16 1672.16 123.16Z" fill="#EC795A"/>
<path d="M1102.45 172.26C1109.73 172.26 1115.64 166.355 1115.64 159.07C1115.64 151.785 1109.73 145.88 1102.45 145.88C1095.17 145.88 1089.26 151.785 1089.26 159.07C1089.26 166.355 1095.17 172.26 1102.45 172.26Z" fill="white"/>
<path d="M1157.02 172.26C1164.3 172.26 1170.21 166.355 1170.21 159.07C1170.21 151.785 1164.3 145.88 1157.02 145.88C1149.74 145.88 1143.83 151.785 1143.83 159.07C1143.83 166.355 1149.74 172.26 1157.02 172.26Z" fill="white"/>
<path d="M1211.6 172.26C1218.88 172.26 1224.79 166.355 1224.79 159.07C1224.79 151.785 1218.88 145.88 1211.6 145.88C1204.32 145.88 1198.41 151.785 1198.41 159.07C1198.41 166.355 1204.32 172.26 1211.6 172.26Z" fill="white"/>
<path d="M242.9 227.39H47.14C44.1355 227.39 41.7 229.826 41.7 232.83C41.7 235.834 44.1355 238.27 47.14 238.27H242.9C245.904 238.27 248.34 235.834 248.34 232.83C248.34 229.826 245.904 227.39 242.9 227.39Z" fill="#EC795A"/>
<path d="M185.14 287.84H105.17C102.166 287.84 99.73 290.276 99.73 293.28C99.73 296.284 102.166 298.72 105.17 298.72H185.14C188.144 298.72 190.58 296.284 190.58 293.28C190.58 290.276 188.144 287.84 185.14 287.84Z" fill="#EC795A"/>
<path d="M333.99 348.29H105.17C102.166 348.29 99.73 350.726 99.73 353.73C99.73 356.734 102.166 359.17 105.17 359.17H333.99C336.994 359.17 339.43 356.734 339.43 353.73C339.43 350.726 336.994 348.29 333.99 348.29Z" fill="#EC795A"/>
<path d="M520.62 469.18H105.17C102.166 469.18 99.73 471.616 99.73 474.62C99.73 477.624 102.166 480.06 105.17 480.06H520.62C523.624 480.06 526.06 477.624 526.06 474.62C526.06 471.616 523.624 469.18 520.62 469.18Z" fill="#EC795A"/>
<path d="M253.49 529.63H105.17C102.166 529.63 99.73 532.066 99.73 535.07C99.73 538.074 102.166 540.51 105.17 540.51H253.49C256.494 540.51 258.93 538.074 258.93 535.07C258.93 532.066 256.494 529.63 253.49 529.63Z" fill="#EC795A"/>
<path d="M384.79 227.39H272.59C269.586 227.39 267.15 229.826 267.15 232.83C267.15 235.834 269.586 238.27 272.59 238.27H384.79C387.794 238.27 390.23 235.834 390.23 232.83C390.23 229.826 387.794 227.39 384.79 227.39Z" fill="#EC795A"/>
<path d="M632.15 287.84H226.85C223.846 287.84 221.41 290.276 221.41 293.28C221.41 296.284 223.846 298.72 226.85 298.72H632.15C635.154 298.72 637.59 296.284 637.59 293.28C637.59 290.276 635.154 287.84 632.15 287.84Z" fill="#EC795A"/>
<path d="M442.82 348.29H374.1C371.096 348.29 368.66 350.726 368.66 353.73C368.66 356.734 371.096 359.17 374.1 359.17H442.82C445.824 359.17 448.26 356.734 448.26 353.73C448.26 350.726 445.824 348.29 442.82 348.29Z" fill="#EC795A"/>
<path d="M351.98 529.63H294.5C291.496 529.63 289.06 532.066 289.06 535.07C289.06 538.074 291.496 540.51 294.5 540.51H351.98C354.984 540.51 357.42 538.074 357.42 535.07C357.42 532.066 354.984 529.63 351.98 529.63Z" fill="#EC795A"/>
<path d="M489.88 227.39H425.79C422.786 227.39 420.35 229.826 420.35 232.83C420.35 235.834 422.786 238.27 425.79 238.27H489.88C492.884 238.27 495.32 235.834 495.32 232.83C495.32 229.826 492.884 227.39 489.88 227.39Z" fill="#EC795A"/>
<path d="M242.9 410.85H47.14C44.1355 410.85 41.7 413.286 41.7 416.29C41.7 419.294 44.1355 421.73 47.14 421.73H242.9C245.904 421.73 248.34 419.294 248.34 416.29C248.34 413.286 245.904 410.85 242.9 410.85Z" fill="#EC795A"/>
<path d="M384.79 410.85H272.59C269.586 410.85 267.15 413.286 267.15 416.29C267.15 419.294 269.586 421.73 272.59 421.73H384.79C387.794 421.73 390.23 419.294 390.23 416.29C390.23 413.286 387.794 410.85 384.79 410.85Z" fill="#EC795A"/>
<path d="M489.88 410.85H425.79C422.786 410.85 420.35 413.286 420.35 416.29C420.35 419.294 422.786 421.73 425.79 421.73H489.88C492.884 421.73 495.32 419.294 495.32 416.29C495.32 413.286 492.884 410.85 489.88 410.85Z" fill="#EC795A"/>
<path d="M632.14 348.29H483.82C480.816 348.29 478.38 350.726 478.38 353.73C478.38 356.734 480.816 359.17 483.82 359.17H632.14C635.144 359.17 637.58 356.734 637.58 353.73C637.58 350.726 635.144 348.29 632.14 348.29Z" fill="#EC795A"/>
<path d="M632.15 469.18H557.8C554.796 469.18 552.36 471.616 552.36 474.62C552.36 477.624 554.796 480.06 557.8 480.06H632.15C635.154 480.06 637.59 477.624 637.59 474.62C637.59 471.616 635.154 469.18 632.15 469.18Z" fill="#EC795A"/>
<path d="M632.15 529.63H395.67C392.666 529.63 390.23 532.066 390.23 535.07C390.23 538.074 392.666 540.51 395.67 540.51H632.15C635.154 540.51 637.59 538.074 637.59 535.07C637.59 532.066 635.154 529.63 632.15 529.63Z" fill="#EC795A"/>
<path d="M802.91 0.789978H548.91C536.29 0.789978 526.06 11.0203 526.06 23.64V209.98C526.06 222.6 536.29 232.83 548.91 232.83H802.91C815.53 232.83 825.76 222.6 825.76 209.98V23.64C825.76 11.0203 815.53 0.789978 802.91 0.789978Z" fill="#E7E7E7"/>
<path d="M641.16 208.26C633.14 208.252 625.451 205.06 619.782 199.386C614.114 193.712 610.93 186.02 610.93 178V140.37C610.931 138.423 610.364 136.519 609.298 134.89C608.232 133.261 606.714 131.979 604.93 131.2L590.32 124.84C589.231 124.365 588.308 123.578 587.667 122.577C587.026 121.577 586.696 120.409 586.72 119.221C586.744 118.034 587.119 116.88 587.799 115.906C588.479 114.932 589.433 114.181 590.54 113.75L603.54 108.68C605.071 108.088 606.385 107.046 607.311 105.691C608.236 104.335 608.727 102.731 608.72 101.09V60.72C608.731 52.1179 612.153 43.8713 618.237 37.7896C624.32 31.7079 632.568 28.2879 641.17 28.28C642.761 28.28 644.287 28.9121 645.413 30.0373C646.538 31.1625 647.17 32.6887 647.17 34.28C647.17 35.8713 646.538 37.3974 645.413 38.5226C644.287 39.6478 642.761 40.28 641.17 40.28C635.75 40.2853 630.553 42.4401 626.719 46.2719C622.885 50.1038 620.728 55.2997 620.72 60.72V101.09C620.74 105.05 619.583 108.927 617.397 112.23C615.211 115.532 612.094 118.111 608.44 119.64L609.71 120.19C613.642 121.899 616.988 124.719 619.339 128.304C621.689 131.889 622.941 136.083 622.94 140.37V178C622.945 182.834 624.867 187.469 628.285 190.888C631.702 194.307 636.336 196.232 641.17 196.24C642.761 196.24 644.287 196.872 645.413 197.997C646.538 199.123 647.17 200.649 647.17 202.24C647.17 203.831 646.538 205.357 645.413 206.483C644.287 207.608 642.761 208.24 641.17 208.24L641.16 208.26Z" fill="#EC795A"/>
<path d="M707.76 208.26C706.169 208.26 704.643 207.628 703.517 206.503C702.392 205.377 701.76 203.851 701.76 202.26C701.76 200.669 702.392 199.143 703.517 198.017C704.643 196.892 706.169 196.26 707.76 196.26C712.599 196.255 717.239 194.329 720.659 190.905C724.079 187.481 726 182.839 726 178V140.37C726 136.082 727.253 131.888 729.606 128.302C731.958 124.717 735.307 121.897 739.24 120.19L740.5 119.64C736.846 118.111 733.729 115.532 731.543 112.23C729.357 108.927 728.2 105.05 728.22 101.09V60.72C728.212 55.2997 726.055 50.1038 722.221 46.2719C718.387 42.4401 713.19 40.2853 707.77 40.28C706.179 40.28 704.653 39.6478 703.527 38.5226C702.402 37.3974 701.77 35.8713 701.77 34.28C701.77 32.6887 702.402 31.1625 703.527 30.0373C704.653 28.9121 706.179 28.28 707.77 28.28C716.372 28.2879 724.62 31.7079 730.703 37.7896C736.787 43.8713 740.209 52.1179 740.22 60.72V101.09C740.214 102.732 740.707 104.337 741.634 105.693C742.561 107.048 743.877 108.09 745.41 108.68L758.41 113.75C759.517 114.181 760.471 114.932 761.151 115.906C761.831 116.88 762.206 118.034 762.23 119.221C762.254 120.409 761.924 121.577 761.283 122.577C760.642 123.578 759.719 124.365 758.63 124.84L744 131.2C742.216 131.979 740.698 133.261 739.632 134.89C738.566 136.519 737.999 138.423 738 140.37V178C738 186.022 734.815 193.716 729.144 199.39C723.474 205.064 715.782 208.255 707.76 208.26Z" fill="#EC795A"/>
<path d="M1306.86 541.61C1304.46 541.609 1302.14 540.747 1300.33 539.18L1205.06 456.83C1203.11 455.144 1201.89 452.771 1201.65 450.206C1201.4 447.641 1202.16 445.081 1203.76 443.06L1275.66 352.31C1277.31 350.231 1279.72 348.891 1282.35 348.587C1284.99 348.282 1287.64 349.037 1289.71 350.685C1291.79 352.333 1293.13 354.74 1293.44 357.376C1293.74 360.012 1292.99 362.661 1291.34 364.74L1225.39 448L1313.39 524.08C1314.92 525.416 1316.01 527.187 1316.5 529.155C1317 531.124 1316.89 533.198 1316.18 535.101C1315.47 537.004 1314.2 538.646 1312.54 539.809C1310.87 540.972 1308.89 541.6 1306.86 541.61Z" fill="#E7E7E7"/>
<path d="M1456.34 541.61C1454.3 541.609 1452.31 540.985 1450.64 539.821C1448.96 538.658 1447.69 537.01 1446.97 535.1C1446.26 533.19 1446.15 531.108 1446.66 529.133C1447.16 527.158 1448.26 525.384 1449.8 524.05L1537.8 447.97L1471.8 364.74C1470.98 363.71 1470.38 362.53 1470.02 361.267C1469.66 360.003 1469.55 358.681 1469.7 357.376C1469.85 356.071 1470.26 354.808 1470.9 353.66C1471.54 352.512 1472.4 351.501 1473.43 350.685C1474.45 349.869 1475.63 349.263 1476.9 348.903C1478.16 348.543 1479.48 348.436 1480.79 348.587C1482.09 348.737 1483.36 349.144 1484.5 349.783C1485.65 350.422 1486.66 351.28 1487.48 352.31L1559.37 443.06C1560.97 445.081 1561.73 447.641 1561.48 450.206C1561.24 452.771 1560.02 455.144 1558.07 456.83L1462.81 539.18C1461.01 540.733 1458.72 541.595 1456.34 541.61Z" fill="#E7E7E7"/>
<path d="M1361.14 546.71C1359.6 546.712 1358.09 546.36 1356.71 545.682C1355.33 545.004 1354.13 544.017 1353.19 542.798C1352.26 541.58 1351.62 540.162 1351.32 538.655C1351.02 537.149 1351.07 535.593 1351.47 534.11L1401.64 347.77C1402.33 345.203 1404.02 343.016 1406.32 341.691C1408.63 340.366 1411.37 340.011 1413.94 340.705C1416.5 341.399 1418.69 343.084 1420.01 345.389C1421.34 347.695 1421.69 350.433 1421 353L1370.79 539.3C1370.22 541.424 1368.97 543.302 1367.22 544.641C1365.48 545.981 1363.34 546.708 1361.14 546.71Z" fill="#E7E7E7"/>
<path d="M1018.44 663.21L810.05 726.61C783.359 734.732 759.585 750.397 741.592 771.72C723.6 793.043 712.156 819.113 708.64 846.79L656.44 1257.87L493.77 1503.21L617.39 1526.54L821.77 1345.87C856.27 1174.32 890.763 1002.77 925.25 831.21L1018.44 663.21Z" fill="#57BDC0"/>
<path d="M982.595 709.053L1080.72 701.76L1066.87 515.305L968.738 522.597L982.595 709.053Z" fill="#E7E7E7"/>
<path d="M1002.66 338.88C928.88 339.23 875.04 409.35 894.22 480.98L913.06 566.89C919.94 598.28 946.56 622.35 975.64 624.62C981.848 624.93 988.071 624.628 994.22 623.72C1037.01 616.97 1061.06 572.39 1074.51 547.46C1076.8 543.23 1079.29 538.25 1081.82 532.58C1097.95 516.904 1109.03 496.762 1113.63 474.742C1118.23 452.722 1116.14 429.83 1107.63 409.006C1099.12 388.183 1084.58 370.379 1065.87 357.883C1047.17 345.387 1025.16 338.769 1002.66 338.88Z" fill="#E7E7E7"/>
<path d="M966.74 554.18C965.733 554.18 964.738 553.955 963.829 553.521C962.92 553.087 962.12 552.455 961.486 551.672C960.852 550.889 960.402 549.974 960.167 548.994C959.933 548.015 959.92 546.995 960.13 546.01L968.13 508.66C968.181 508.399 968.283 508.151 968.431 507.929C968.579 507.708 968.769 507.519 968.991 507.372C969.213 507.226 969.462 507.125 969.723 507.076C969.985 507.026 970.253 507.03 970.513 507.086C970.773 507.142 971.02 507.249 971.238 507.401C971.456 507.553 971.642 507.747 971.784 507.972C971.926 508.197 972.022 508.448 972.066 508.71C972.11 508.973 972.101 509.241 972.04 509.5L964.04 546.85C963.952 547.255 963.958 547.676 964.056 548.079C964.153 548.482 964.341 548.858 964.604 549.178C964.868 549.498 965.201 549.755 965.577 549.928C965.954 550.102 966.365 550.188 966.78 550.18L980.4 549.93C980.93 549.93 981.439 550.141 981.814 550.516C982.189 550.891 982.4 551.4 982.4 551.93C982.4 552.46 982.189 552.969 981.814 553.344C981.439 553.719 980.93 553.93 980.4 553.93L966.74 554.18Z" fill="#262246"/>
<path d="M935.63 494.92C933.731 494.928 931.877 495.499 930.302 496.561C928.728 497.623 927.504 499.128 926.785 500.886C926.066 502.643 925.884 504.575 926.263 506.436C926.642 508.297 927.565 510.003 928.914 511.34C930.263 512.676 931.978 513.583 933.843 513.944C935.707 514.306 937.637 514.106 939.388 513.371C941.139 512.636 942.632 511.397 943.679 509.813C944.726 508.228 945.28 506.369 945.27 504.47C945.257 501.926 944.234 499.491 942.426 497.7C940.619 495.909 938.174 494.909 935.63 494.92Z" fill="#262246"/>
<path d="M1008.48 494.57C1006.58 494.578 1004.73 495.149 1003.15 496.21C1001.58 497.272 1000.35 498.776 999.636 500.533C998.916 502.29 998.734 504.221 999.112 506.082C999.491 507.943 1000.41 509.649 1001.76 510.986C1003.11 512.323 1004.82 513.231 1006.69 513.593C1008.55 513.956 1010.48 513.758 1012.23 513.024C1013.98 512.29 1015.48 511.053 1016.52 509.47C1017.57 507.887 1018.13 506.029 1018.12 504.13C1018.12 502.869 1017.86 501.621 1017.38 500.458C1016.89 499.294 1016.18 498.239 1015.28 497.351C1014.39 496.463 1013.33 495.76 1012.16 495.283C1010.99 494.806 1009.74 494.563 1008.48 494.57Z" fill="#262246"/>
<path d="M1032.17 469.58C1021.12 459.2 1004.57 463.39 1001.8 464.09C999.45 464.69 991.52 466.73 991.18 470.53C990.98 472.69 993.34 474.53 993.44 474.53C998.57 478.36 1005.44 470.97 1015.94 471.04C1028.16 471.13 1036.07 481.19 1037.71 479.35C1038.8 478.17 1035.91 473.1 1032.17 469.58Z" fill="#262246"/>
<path d="M941.23 464C938.46 463.29 921.92 459 910.85 469.4C907.09 472.91 904.18 477.97 905.27 479.19C906.91 481.04 914.85 471 927.08 470.95C937.62 470.95 944.42 478.32 949.56 474.51C949.66 474.43 952.02 472.64 951.83 470.51C951.51 466.67 943.57 464.6 941.23 464Z" fill="#262246"/>
<path d="M978.16 627.68C977.63 627.68 977.121 627.469 976.746 627.094C976.371 626.719 976.16 626.21 976.16 625.68C976.16 625.412 976.214 625.147 976.318 624.901C976.422 624.654 976.575 624.431 976.767 624.244C976.959 624.058 977.187 623.912 977.436 623.815C977.686 623.718 977.952 623.672 978.22 623.68C989.447 623.998 1000.58 621.539 1010.63 616.522C1020.67 611.505 1029.33 604.085 1035.82 594.92C1036.13 594.486 1036.59 594.192 1037.12 594.102C1037.64 594.012 1038.18 594.134 1038.61 594.44C1039.04 594.746 1039.34 595.212 1039.43 595.736C1039.52 596.259 1039.4 596.796 1039.09 597.23C1032.22 606.927 1023.07 614.78 1012.44 620.092C1001.81 625.404 990.038 628.01 978.16 627.68Z" fill="#1E2124"/>
<path d="M1061.68 667.89L1281 698.67C1312.95 703.155 1343.34 715.293 1369.59 734.05C1395.84 752.806 1417.17 777.627 1431.77 806.4L1683.61 1302.78L1501.7 1363.42C1134.63 773 1227.69 919.63 1061.68 667.89Z" fill="#E7E7E7"/>
<path d="M776.44 750.21L1018.44 654.21L1336.44 715.54C1325.77 985.76 1315.11 1255.98 1304.44 1526.21H781.77C780.003 1267.54 778.227 1008.88 776.44 750.21Z" fill="#57BDC0"/>
<path d="M965.77 1329.87L1637.77 1220.54C1650.89 1239.14 1727.19 1349.85 1687.11 1412.54C1658.72 1456.94 1585.65 1455.82 1540.44 1455.21C1380.93 1453.04 1205.91 1452.21 1000.44 1451.21L965.77 1329.87Z" fill="#E7E7E7"/>
<path d="M1024 664L1296.73 699.22C1329.8 703.497 1361.4 715.459 1389.01 734.147C1416.62 752.836 1439.47 777.732 1455.73 806.84L1651.31 1157L1378.16 1242.33L1229.98 874.33L1024 664Z" fill="#57BDC0"/>
<path d="M694.84 853.23L594.44 1209.23L878.44 1251.23L961.15 766.51L1023.93 658.23L838.56 709.95C804.326 719.498 773.123 737.693 747.953 762.786C722.784 787.879 704.493 819.025 694.84 853.23Z" fill="#57BDC0"/>
<path d="M979.65 670.56C979.65 670.56 981.04 705.87 1022.37 708.87C1063.7 711.87 1077.97 665.87 1077.97 665.87L1059 638.21L1009.66 643.54L985 656.54L979.65 670.56Z" fill="#E7E7E7"/>
<path d="M1052.2 448.16C1052.2 448.16 1018.2 445.83 1014.56 405.83C1014.56 405.83 973.1 383.83 961.98 409.83C950.86 435.83 928.44 437.83 928.44 437.83C928.44 437.83 909.87 499.01 862.87 479.42C815.87 459.83 776.87 367.83 834.87 311.83C892.87 255.83 968.78 295.83 968.78 295.83C968.78 295.83 1003 255.15 1038 282C1038 282 1129.92 270.84 1146.92 359.84C1163.92 448.84 1072.33 587.73 1072.33 587.73C1060.56 503.75 1065.19 535.79 1052.2 448.16Z" fill="black"/>
<path d="M1086.9 486.46C1074.49 480.04 1058.34 486.61 1050.83 501.13C1043.32 515.65 1047.28 532.64 1059.69 539.05C1072.1 545.46 1088.25 538.9 1095.76 524.38C1103.27 509.86 1099.31 492.88 1086.9 486.46Z" fill="#E7E7E7"/>
<path d="M1066.63 526.9C1068.55 526.268 1070.22 525.044 1071.4 523.404C1072.58 521.765 1073.21 519.793 1073.2 517.772C1073.19 515.752 1072.54 513.786 1071.34 512.158C1070.15 510.53 1068.47 509.323 1066.54 508.71C1066.09 508.561 1065.7 508.256 1065.46 507.849C1065.21 507.443 1065.11 506.961 1065.19 506.491C1065.27 506.021 1065.51 505.594 1065.87 505.285C1066.23 504.977 1066.69 504.809 1067.17 504.81L1086.17 504.72C1086.7 504.72 1087.21 504.931 1087.58 505.306C1087.96 505.681 1088.17 506.19 1088.17 506.72C1088.17 507.25 1087.96 507.759 1087.58 508.134C1087.21 508.509 1086.7 508.72 1086.17 508.72L1073.71 508.78C1075.23 510.444 1076.3 512.461 1076.84 514.647C1077.38 516.833 1077.36 519.119 1076.78 521.296C1076.21 523.473 1075.1 525.472 1073.56 527.111C1072.02 528.75 1070.09 529.977 1067.95 530.68C1067.45 530.855 1066.9 530.824 1066.42 530.593C1065.94 530.362 1065.58 529.951 1065.4 529.45C1065.22 528.949 1065.26 528.399 1065.49 527.92C1065.72 527.442 1066.13 527.075 1066.63 526.9Z" fill="#262246"/>
<path d="M1320.94 1119.21C1320.41 1119.21 1319.9 1119 1319.53 1118.62C1319.15 1118.25 1318.94 1117.74 1318.94 1117.21V852.54C1318.94 852.01 1319.15 851.501 1319.53 851.126C1319.9 850.751 1320.41 850.54 1320.94 850.54C1321.47 850.54 1321.98 850.751 1322.35 851.126C1322.73 851.501 1322.94 852.01 1322.94 852.54V1117.21C1322.94 1117.74 1322.73 1118.25 1322.35 1118.62C1321.98 1119 1321.47 1119.21 1320.94 1119.21Z" fill="#1E2124"/>
<path d="M1012.7 1323.21L807.7 1332.54C786.647 1366.76 765.593 1400.98 744.54 1435.21C739.26 1444.99 741.6 1456.88 749.37 1463.21C758.45 1470.6 773.24 1469.02 781.25 1458.53L823.25 1387.87L800.75 1469.21C802.45 1488.62 823.58 1490.14 834.84 1475.96L861.25 1401.77L856.75 1470.54C857.303 1474.71 859.254 1478.57 862.284 1481.49C865.314 1484.41 869.245 1486.22 873.434 1486.61C877.623 1487.01 881.823 1485.97 885.347 1483.68C888.872 1481.38 891.513 1477.95 892.84 1473.96C894.973 1453.04 897.11 1432.12 899.25 1411.21L903.09 1474.21C903.92 1477.88 905.967 1481.17 908.9 1483.53C911.832 1485.89 915.476 1487.19 919.241 1487.22C923.006 1487.25 926.67 1486 929.638 1483.69C932.606 1481.37 934.703 1478.12 935.59 1474.46L940.75 1429.87L969.24 1453.55C974.94 1458.29 981.813 1461.39 989.133 1462.55C996.453 1463.7 1003.95 1462.86 1010.83 1460.11L1044.75 1446.54C1034.06 1405.43 1023.37 1364.32 1012.7 1323.21Z" fill="#E7E7E7"/>
<path d="M1433.5 1255.77C1432.97 1255.81 1432.44 1255.64 1432.04 1255.3C1431.63 1254.95 1431.38 1254.46 1431.34 1253.93C1431.3 1253.4 1431.47 1252.87 1431.81 1252.47C1432.16 1252.06 1432.65 1251.81 1433.18 1251.77L1582.75 1227.43C1583.01 1227.39 1583.28 1227.4 1583.54 1227.46C1583.8 1227.52 1584.04 1227.63 1584.26 1227.79C1584.47 1227.95 1584.66 1228.14 1584.8 1228.37C1584.93 1228.6 1585.03 1228.85 1585.07 1229.11C1585.11 1229.37 1585.1 1229.64 1585.04 1229.9C1584.98 1230.16 1584.87 1230.4 1584.71 1230.62C1584.55 1230.83 1584.36 1231.02 1584.13 1231.16C1583.9 1231.29 1583.65 1231.39 1583.39 1231.43C1427.58 1256.76 1433.9 1255.77 1433.5 1255.77Z" fill="#1E2124"/>
<path d="M969.87 569.54L1011 560C1011.97 565.348 1010.84 570.863 1007.85 575.401C1004.86 579.94 1000.24 583.153 994.944 584.375C989.648 585.597 984.085 584.734 979.409 581.964C974.733 579.195 971.303 574.731 969.83 569.5L969.87 569.54Z" fill="#262246"/>
<path d="M572.04 1507.2H380.04L406.04 1251.2H546.04L572.04 1507.2Z" fill="#E05F3C"/>
<path d="M747.2 1480.54H716.2V1501.21H747.2V1480.54Z" fill="#1E2124"/>
<path d="M785.2 1480.54H754.2V1501.21H785.2V1480.54Z" fill="#1E2124"/>
<path d="M823.2 1480.54H792.2V1501.21H823.2V1480.54Z" fill="#1E2124"/>
<path d="M861.2 1480.54H830.2V1501.21H861.2V1480.54Z" fill="#1E2124"/>
<path d="M899.2 1480.54H868.2V1501.21H899.2V1480.54Z" fill="#1E2124"/>
<path d="M937.2 1480.54H906.2V1501.21H937.2V1480.54Z" fill="#1E2124"/>
<path d="M975.2 1480.54H944.2V1501.21H975.2V1480.54Z" fill="#1E2124"/>
<path d="M1013.2 1480.54H982.2V1501.21H1013.2V1480.54Z" fill="#1E2124"/>
<path d="M1051.2 1480.54H1020.2V1501.21H1051.2V1480.54Z" fill="#1E2124"/>
<path d="M1089.2 1480.54H1058.2V1501.21H1089.2V1480.54Z" fill="#1E2124"/>
<path d="M1127.2 1480.54H1096.2V1501.21H1127.2V1480.54Z" fill="#1E2124"/>
<path d="M947.94 1403.2H98.04L50.04 831.2H907.44L947.94 1403.2Z" fill="#E05F3C"/>
<path d="M734.87 1514.97H186.54L213.9 1473.66H707.5L734.87 1514.97Z" fill="#E7E7E7"/>
<path d="M1148.04 1490.32H436.04V1526.54H1148.04V1490.32Z" fill="#E7E7E7"/>
<path d="M390.6 1405.21C390.319 1405.21 390.04 1405.15 389.783 1405.04C389.525 1404.93 389.295 1404.76 389.106 1404.55C388.917 1404.34 388.775 1404.1 388.687 1403.83C388.6 1403.56 388.57 1403.28 388.6 1403L404 1251C404.052 1250.51 404.286 1250.05 404.655 1249.72C405.025 1249.39 405.504 1249.21 406 1249.21H546C546.493 1249.21 546.97 1249.39 547.339 1249.71C547.708 1250.04 547.943 1250.49 548 1250.98L564 1393.65C564.029 1393.91 564.006 1394.18 563.932 1394.43C563.858 1394.69 563.735 1394.92 563.57 1395.13C563.236 1395.54 562.75 1395.81 562.22 1395.87C561.69 1395.93 561.158 1395.77 560.741 1395.44C560.325 1395.11 560.058 1394.62 560 1394.09L544.2 1253.21H407.84L392.59 1403.41C392.54 1403.9 392.309 1404.36 391.942 1404.69C391.574 1405.03 391.096 1405.21 390.6 1405.21Z" fill="#1E2124"/>
<path d="M1331 1504H164V1542H1331V1504Z" fill="#E05F3C"/>
</svg>
